<svg enable-background="new 0 0 765 359" height="60" viewBox="0 0 120 60" width="120" xmlns="http://www.w3.org/2000/svg"><g stroke-width=".136657"><g transform="matrix(1.6295974 0 0 1.6295974 -24.649873 -22.850935)"><path d="m25.035144 17.185382c.191319.355307.450967.9156.669618 1.257241.150322.232317.31431.437302.50563.628621.560292.560293 1.093253 1.147917 1.571552 1.776537 1.13425 1.489558 1.899528 3.143104 2.446155 4.933307.327976 1.093254.505629 2.213839.519295 3.348089.05466 3.389087-1.106919 6.299874-3.457415 8.718698-.382638.382639-.792608.737946-1.22991 1.052256-.232316 0-.341642-.177653-.437301-.341641-.177654-.300645-.286979-.642287-.341642-.983929-.08199-.40997-.136657-.81994-.109325-1.243575 0-.06833 0-.122992 0-.19132-.01367-.041-.218651-18.858624-.136657-18.954284z" fill="#599636"/><path d="m25.035144 17.144385c-.02733-.05466-.05466-.01367-.08199.01366.01367.273314-.08199.519296-.232316.751612-.163989.232317-.382639.40997-.60129.60129-1.216245 1.052256-2.172841 2.323164-2.938119 3.744393-1.01126 1.913194-1.544221 3.963045-1.694543 6.122221-.06833.778943.245982 3.525742.491964 4.318351.669618 2.104513 1.872197 3.867385 3.430083 5.39794.382639.368973.792609.710615 1.216245 1.038591.122991 0 .136657-.109326.163988-.19132.05466-.177653.09566-.355307.122991-.532961.122991-.683283.191319-1.366567.273313-2.04985 0-.08199-.109325-19.145604-.150322-19.213932z" fill="#6cac48"/><path d="m25.704762 39.733737c.02733-.31431.177653-.573958.341642-.833606-.163989-.06833-.28698-.204985-.382639-.355307-.08199-.136657-.150323-.300645-.204985-.450967-.19132-.573958-.232317-1.175248-.286979-1.762872 0-.05466 0-.122991 0-.177653 0-.05466 0-.122991 0-.177654-.06833.05466-.08199.519296-.08199.587624-.041.628621-.122991 1.243576-.245982 1.844865-.041.245982-.06833.491964-.218651.710615 0 .02733 0 .05466.01367.09566.245982.72428.31431 1.462227.355307 2.213838v.273314c0 .327976-.01367.259648.259648.368973.109325.041.232316.05466.341641.136657.08199 0 .09566-.06833.09566-.122991-.01367-.150323-.041-.300645-.041-.450968 0-.423635-.01367-.833605 0-1.257241-.01367-.218651.02733-.437302.05466-.642287z" fill="#c2bfbf"/></g><g transform="matrix(1.0211238 0 0 1.0211238 -4.376285 -1.845946)"><path d="m37.730551 33.720843v2.077181c0 .08199 0 .163988.01367.245982.02733.245982.177654.396305.40997.464633.204985.05466.423636.09566.628621.122991.122991.01367.163988.06833.177654.19132.01367.464632-.02733.519295-.478299.491964-1.052256-.05466-2.104513-.06833-3.15677 0-.041 0-.08199 0-.109325 0-.327976.01366-.355307-.01367-.355307-.341642 0-.05466.01367-.122991.01367-.177654 0-.109325.06833-.150322.163988-.150322.218651-.02733.423636-.08199.628621-.122991.286979-.06833.450967-.245982.478299-.532961.041-.314311.041-.642287.041-.956597.041-1.216245.02733-2.446155.01366-3.6624 0-.232316-.09566-.40997-.300644-.519295-.245982-.136657-.50563-.245982-.778944-.327976-.08199-.02733-.163988-.041-.232316-.08199-.191319-.09566-.204985-.273314-.01367-.382639.06833-.041.150323-.06833.232317-.08199.833606-.122991 1.63988-.327976 2.432489-.614955.163988-.05466.204985-.041.218651.122991.01367.109325 0 .218651-.01367.31431-.02733.177654-.02733.355308-.02733.519296 0 .06833.01366.136656.08199.177653.06833.041.136656 0 .191319-.041.286979-.21865.573958-.423635.888269-.601289.450967-.245982.929265-.464633 1.448561-.532961.62862-.08199 1.175247.08199 1.653546.491964.204985.177654.368973.382639.519295.601289.136657.19132.150323.204985.327976.06833.519296-.382639 1.065923-.724281 1.653546-.970263.614955-.259648 1.243576-.300645 1.872197-.08199.642287.232317 1.079588.683284 1.339236 1.298239.218651.491964.31431 1.011259.31431 1.530555v2.432489 1.22991c0 .245982.109326.40997.341642.519296.259648.109325.546627.150322.81994.204985.177654.041.177654.041.177654.218651-.02733.450967-.06833.478298-.50563.450967-1.093254-.06833-2.200173-.05466-3.293426 0-.218651.01366-.218651.01366-.232317-.204985 0-.02733 0-.041 0-.06833-.01367-.368973-.01367-.368973.341642-.450967.122991-.02733.232316-.05466.355307-.09566.273314-.08199.40997-.259648.423636-.532962.01367-.341641.02733-.683283.041-1.024925 0-.888268.02733-1.790203-.02733-2.678471-.01367-.232317-.05466-.464633-.150323-.696949-.341641-.833606-1.093253-1.134251-1.817534-1.052257-.546626.05466-1.024925.273313-1.475892.587624-.09566.06833-.163988.150322-.150322.286979.122991.874603.041 1.749206.05466 2.623809.01367.62862 0 1.270907 0 1.899528 0 .341641.136657.50563.464633.587624.204985.05466.40997.09566.628621.136656.09566.01367.150322.05466.150322.163988v.109326c-.01367.382638-.041.40997-.423635.396304-1.093254-.05466-2.186508-.041-3.266096 0-.368973.01367-.40997-.02733-.382638-.40997.01367-.218651.041-.232316.245982-.273313.150322-.02733.300644-.05466.450967-.08199.40997-.08199.546627-.232317.573958-.655953.01367-.300644.041-.614955.041-.915599.01367-.9156.041-1.8312-.02733-2.7468-.02733-.341642-.109326-.669618-.286979-.983928-.273314-.50563-.710615-.765278-1.284573-.792609-.587624-.041-1.10692.177653-1.598884.450967-.341642.191319-.491964.437301-.464633.833606.01367.683283-.01366 1.339235 0 1.995188-.01366 0 0 0 0 0z" fill="#47474a"/><path d="m63.476674 33.802837v1.926859c0 .136657.01366.273313.02733.40997.02733.204985.136657.327976.327976.382639.232316.06833.478299.109325.724281.122991.136656.01367.163988.06833.177653.177654v.09566c-.01367.478299-.06833.532961-.532961.50563-1.038591-.06833-2.077182-.05466-3.115773 0-.136656 0-.273313.01367-.40997.01367-.08199 0-.109325-.041-.122991-.09566-.041-.191319-.041-.382639 0-.573958.01367-.08199.06833-.109325.150323-.122991.191319-.02733.368973-.06833.560292-.109325.341642-.08199.464633-.218651.478299-.573959.02733-.382638.041-.765277.041-1.147916 0-1.120585 0-2.24117 0-3.361755 0-.245982-.09566-.396304-.314311-.505629-.245982-.136657-.50563-.232317-.778943-.327977-.08199-.02733-.163988-.05466-.232316-.09566-.177654-.122991-.19132-.300645-.02733-.437302.08199-.06833.163988-.09566.273314-.109325.874603-.136657 1.721874-.327976 2.541814-.655952.09566-.041.136657-.01367.177654.06833.041.08199.05466.177654.041.273314-.01367.21865-.02733.423635-.041.642286 0 .08199-.041.191319.02733.232316.08199.05466.136657-.06833.204985-.109325.40997-.327976.847272-.628621 1.32557-.847271.423636-.19132.860938-.327977 1.352902-.300645.9156.05466 1.571552.519295 1.995188 1.32557.21865.423636.31431.888268.355307 1.366567.02733.327976.041.669618.041 1.011259 0 .942932.01367 1.872197.01367 2.815128v.204985c.01367.232317.09566.382639.327976.464633.245982.08199.478298.136657.737946.177654.218651.02733.232316.06833.245982.273313v.06833c-.02733.464632-.05466.478298-.519296.450967-1.024925-.05466-2.04985-.05466-3.06111 0-.136656.01366-.273313 0-.40997.01366-.08199 0-.136656-.01366-.150322-.09566-.02733-.177654-.05466-.355308-.01367-.546627.01367-.08199.05466-.122991.150323-.136657.204985-.02733.423635-.05466.62862-.109325.218651-.05466.341642-.191319.368974-.40997.01367-.122991.02733-.259648.02733-.382639 0-.956597 0-1.913194-.01367-2.856125 0-.327976-.01367-.655952-.08199-.983928-.163988-.710615-.696949-1.188914-1.42123-1.270908-.62862-.06833-1.188913.09566-1.721874.437302-.259648.163988-.368973.396304-.368973.683283v1.448561.614956c0-.041 0-.041.01367-.041z" fill="#47474a"/><path d="m103.50342 29.935452c-.15032-.997594-.51929-1.885863-1.16158-2.664806-.57396-.696949-1.27091-1.216244-2.10451-1.557886-.860941-.355308-1.776541-.464633-2.705807-.491964-.382638-.01367-5.602924.06833-5.985563 0-.09566-.01367-.163988.01366-.218651.09566-.06833.109326-.136657.204986-.177654.314311-.163988.368973-.163988.341642.232317.396304.327976.05466.642286.08199.956597.177654.286979.09566.491964.259648.560292.573958.02733.150323.05466 4.960638.05466 7.201808 0 .532961-.01367 1.065923-.05466 1.598884-.01367.122991-.02733.245982-.06833.355307-.05466.163988-.150323.300645-.314311.368973-.177653.08199-.368973.136657-.573958.150323-.368973.041-.423636.05466-.546627.464632-.01366.05466-.02733.109326-.041.150323-.02733.177653-.01367.204985.163988.204985.819941.01367 3.402752.041 4.086036.041.382639-.01367.997594.02733 1.598883-.02733.368973-.041.737946-.06833 1.106919-.136656 1.257242-.232317 2.377829-.751612 3.334429-1.585218.56028-.491964.98393-1.065922 1.31189-1.721874.38264-.765278.54663-1.598884.58764-2.446155.0683-.478299.041-.970263-.041-1.462227zm-1.98152 1.940525c-.0547.874603-.23232 1.721874-.68328 2.487152-.57396.997594-1.393903 1.694543-2.528154 1.940525-.491964.109326-.983928.150323-1.489558.08199-.368973-.041-.72428-.08199-1.065922-.204985-.614955-.218651-.833606-.601289-.847271-1.188913-.02733-.860937 0-6.887498-.01367-8.240399 0-.491964.218651-.60129.573958-.614955.532961-.041 1.079588-.02733 1.612549.02733.573958.05466 1.120585.191319 1.653546.40997.396305.163988.765278.396305 1.079588.669618.737954.628621 1.229914 1.42123 1.489564 2.350495.21865.751612.25965 1.51689.21865 2.282167z" fill="#c2bfbf"/><path d="m114.85959 33.215213c0-.08199 0-.150323-.0137-.232317-.12299-.751612-.5193-1.32557-1.13425-1.762871-.39631-.286979-.84727-.478299-1.31191-.614955-.082-.02733-.15032-.05466-.23231-.06833.0137-.06833.0547-.08199.0957-.09566.27331-.136657.53296-.286979.76527-.491964.42364-.355308.71062-.792609.84727-1.32557.082-.286979.082-.573959.0547-.874603-.0683-.751612-.39631-1.339236-.9976-1.776537-.62862-.464633-1.36656-.655953-2.13184-.669618-1.47589-.02733-2.96545 0-4.44134 0-.42364 0-.84728.02733-1.28458-.041-.082-.01367-.19132-.041-.25964.05466-.10933.177654-.21866.355308-.25965.560293-.0137.09566.0137.150322.12299.163988.31431.041.62862.09566.94293.136657.36897.05466.62862.259647.65595.587624.0273.232316.041.450967.041.683283 0 .847272-.0137 1.708209-.0273 2.55548-.0273 1.680878-.0137 3.375421-.0137 5.056298 0 .300645-.041.587624-.0957.888269-.041.204985-.15032.341641-.35531.40997-.27331.08199-.53296.163988-.81994.163988-.17765 0-.28697.06833-.3553.232316-.0547.122991-.10933.259648-.12299.382639-.0273.163988.0137.218651.17765.191319.12299-.01366 4.63266.09566 5.47993.01367.50563-.05466 1.01126-.122991 1.50323-.273313.86093-.273314 1.65354-.669618 2.28216-1.339236.5193-.546627.81994-1.202579.84728-1.967856.041-.177654.041-.355308.041-.546627zm-6.62785-5.589259c.0273-.368973.0273-.724281.041-1.093254 0-.204985.082-.300645.28698-.341642.32798-.06833.65595-.041.98393-.02733.32797.02733.64228.06833.97026.163988.60129.177654 1.06592.519296 1.33924 1.093254.12299.259647.19131.546626.19131.833606.0137.382638-.0137.751611-.16398 1.120584-.23232.50563-.60129.833606-1.13425.929266s-2.04985.05466-2.28217.05466c-.20499 0-.21865-.02733-.21865-.232317 0-.437301 0-.874603 0-1.298238-.0273-.382639-.041-.792609-.0137-1.202579zm4.44135 7.35213c-.23232.614955-.65596 1.038591-1.25725 1.270907-.32797.122992-.65595.19132-1.01126.177654-.42363-.01367-.84727 0-1.2709-.08199-.57396-.122991-.83361-.669618-.87461-1.065922-.0683-.696949-.0273-1.407564-.041-1.92686 0-.72428 0-1.257241 0-1.803868 0-.218651.0273-.286979.25964-.286979.42364-.01367.84728-.02733 1.28458.01367.30064.02733.58762.05466.8746.109325.61496.136657 1.17525.368973 1.61255.847272.35531.382638.54663.847271.58762 1.352901.041.478298.0137.942931-.16398 1.393898z" fill="#c2bfbf"/><g fill="#47474a"><path d="m77.948618 30.851052c.122991.01366.245982.041.355308.05466.382638.01366.833605-.122992.970262-.655953.06833-.259647.08199-.505629 0-.778943-.08199 0-.122991.06833-.163988.09566-.204985.163988-.437301.259648-.683283.286979-.491964.05466-.983929.02733-1.462227-.150322-.218651-.08199-.437302-.163988-.669618-.232317-.464633-.150322-.956597-.218651-1.448561-.191319-.696949.05466-1.352901.286979-1.967856.614955-.655953.355307-1.120585.888268-1.339236 1.612549-.122991.423636-.136657.860937-.08199 1.298239.136657.997594.655952 1.694543 1.585218 2.063516.05466.01367.09566.041.150322.05466.122991.06833.136657.136657.02733.232317-.109325.08199-.21865.163988-.341641.232316-.273314.163988-.546627.327976-.819941.50563-.204985.122991-.232316.218651-.163988.437301.08199.259648.232317.478299.437302.655953.191319.163988.396304.286979.628621.382638.150322.06833.150322.109326.01367.218651-.259647.19132-.519295.368973-.778943.560293-.259648.191319-.519295.40997-.737946.655952-.31431.355307-.423636.765277-.327976 1.22991.109325.491964.341642.888269.710615 1.22991.355307.327976.778943.560293 1.257241.683284.765278.218651 1.557887.232316 2.33683.08199 1.120585-.204985 2.090847-.710615 2.869791-1.544221.532961-.560292.847271-1.216244.874602-2.008853.041-.956597-.546626-1.762872-1.475892-1.995188-.245982-.05466-.491964-.09566-.737946-.136657-.751612-.09566-1.503224-.136657-2.254836-.191319-.245982-.01367-.491964-.05466-.696949-.177654-.259648-.163988-.327976-.478298-.163988-.683283.122991-.150323.273314-.245982.464633-.259648.150322-.01367.286979-.02733.437301-.041.888269-.09566 1.653546-.450967 2.309499-1.052257.341641-.31431.573958-.710615.696949-1.161582.163988-.587624.163988-1.188913.02733-1.790202-.041-.150323-.02733-.163989.163988-.136657zm-3.348089 6.805503c.08199.01367.163988 0 .245982 0 .573958.02733 1.161582.06833 1.721875.218651.191319.05466.355307.122991.532961.204985.546626.300645.751611.81994.683283 1.380233-.08199.614955-.423636 1.052257-.956597 1.339236-.355307.191319-.751612.286979-1.161582.327976-.150322.01366-.286979 0-.437301 0-.478299.01366-.942931-.041-1.393898-.232317-.314311-.122991-.573959-.300644-.806275-.546627-.478298-.478298-.710615-1.352901.01367-2.063516.437301-.40997.929265-.683283 1.557886-.628621zm1.557886-4.263689c-.286979.724281-.915599.942932-1.54422.847272-.573958-.08199-.997594-.396304-1.270908-.9156-.355307-.696949-.450967-1.42123-.245982-2.172841.150323-.560293.491964-.983929 1.093254-1.079588.765277-.136657 1.489558.136656 1.885862.901934.19132.368973.286979.81994.286979 1.462227-.01367.259647-.06833.614955-.204985.956596z"/><path d="m58.939671 32.463601c-.122991-.737946-.396304-1.407564-.901934-1.967857-.751612-.833605-1.708209-1.188913-2.787797-1.202579-.942931-.01366-1.831199.259648-2.623808.751612s-1.339236 1.188914-1.598884 2.090848c-.232316.792609-.21865 1.598883-.041 2.405158.478299 2.159176 2.14551 3.088441 4.140698 2.951784.587624-.041 1.147917-.232316 1.680878-.491964.792609-.368973 1.366567-.956597 1.762871-1.73554.314311-.642286.450967-1.32557.437302-2.104513-.01367-.191319-.02733-.450967-.06833-.696949zm-1.940525 3.033779c-.245982.655952-.710615 1.052256-1.407564 1.147916-.601289.081994-1.161582-.068328-1.667212-.423636-.368973-.273313-.655952-.614955-.860937-1.024925-.560292-1.147916-.655952-2.350495-.368973-3.580406.09566-.382638.286979-.72428.573958-.997594.50563-.464632 1.093254-.573958 1.749206-.437301.628621.136657 1.106919.478298 1.489558.997594.382639.519295.573958 1.120585.683283 1.749206.05466.31431.05466.642286.06833.847271 0 .655952-.05466 1.188913-.259648 1.721875z"/><path d="m88.79916 32.572926c-.109325-.792609-.396304-1.516889-.956597-2.118179-.737946-.806274-1.694543-1.147916-2.760465-1.161582-.9156-.01366-1.762872.245983-2.541815.69695-.874603.519295-1.475892 1.257241-1.708208 2.254835-.273314 1.120585-.163988 2.213839.327976 3.25243.450967.956597 1.216244 1.571552 2.227504 1.844865 1.120585.300645 2.186507.163988 3.225098-.341642.901934-.437301 1.544221-1.120585 1.913194-2.04985.21865-.546627.300644-1.134251.31431-1.817534.01367-.122991-.01367-.341642-.041-.560293zm-1.885862 2.7468c-.218651.737946-.683284 1.216245-1.462227 1.32557-.573958.08199-1.120585-.05466-1.612549-.382639-.423636-.286979-.724281-.669618-.942931-1.120585-.245982-.478298-.382639-.983928-.437302-1.503223-.08199-.642287-.08199-1.270908.06833-1.913194.02733-.122991.06833-.245982.122991-.368973.382638-.956597 1.22991-1.393899 2.227504-1.175248.669618.150322 1.175247.519295 1.557886 1.079588.368973.546627.546627 1.147916.628621 1.790203.041.259647.05466.532961.041.765277 0 .532961-.041 1.024925-.191319 1.503224z"/></g></g></g></svg>