<svg height="64" viewBox="0 0 64 64.000002" width="64" xmlns="http://www.w3.org/2000/svg"><path d="m58.201205 3.3647353a29.502571 29.502571 0 0 1 -3.419427 6.0635284 32.093654 32.093654 0 1 0 -44.8171471 45.9437023l1.1862041 1.04703a32.0804 32.0804 0 0 0 52.669915-22.252841c.874729-8.170863-1.524176-18.508679-5.619545-30.8014197zm-43.670701 52.1927807a2.7435006 2.7435006 0 1 1 -.404222-3.856817 2.7435006 2.7435006 0 0 1 .404222 3.856817zm43.538168-9.608881c-7.919047 10.549887-24.830664 6.991287-35.672138 7.501546 0 0-1.92177.112575-3.856802.430747 0 0 .72895-.311462 1.663339-.662683 7.614201-2.650718 11.212557-3.160993 15.83808-5.54002 8.70763-4.426709 17.322485-14.121735 19.111726-24.201121-3.313404 9.695038-13.372909 18.031557-22.531166 21.417871-6.275586 2.312747-17.614071 4.565873-17.614071 4.565873l-.457242-.245198c-7.7136191-3.750781-7.9521861-20.456973 6.076776-25.844567 6.143067-2.365781 12.021046-1.066923 18.654482-2.650721 7.084064-1.683217 15.281433-6.991288 18.614716-13.9163101 3.730902 11.0800281 8.223877 28.4223921.165671 39.1512131z" fill="#68bd45" stroke-width=".662681"/></svg>